<svg width="25" height="24" viewBox="0 0 25 24" fill="none" xmlns="http://www.w3.org/2000/svg">
<path fill-rule="evenodd" clip-rule="evenodd" d="M12.6753 8.50003C11.7103 8.50003 10.9253 9.28503 10.9253 10.251C10.9253 11.216 11.7103 12 12.6753 12C13.6403 12 14.4253 11.216 14.4253 10.251C14.4253 9.28503 13.6403 8.50003 12.6753 8.50003ZM12.6753 13.5C10.8833 13.5 9.42529 12.043 9.42529 10.251C9.42529 8.45803 10.8833 7.00003 12.6753 7.00003C14.4673 7.00003 15.9253 8.45803 15.9253 10.251C15.9253 12.043 14.4673 13.5 12.6753 13.5Z" fill="#125FBF"/>
<mask id="mask0_996_4605" style="mask-type:luminance" maskUnits="userSpaceOnUse" x="4" y="2" width="17" height="20">
<path fill-rule="evenodd" clip-rule="evenodd" d="M4.4248 2.00003H20.9243V21.5H4.4248V2.00003Z" fill="white"/>
</mask>
<g mask="url(#mask0_996_4605)">
<path fill-rule="evenodd" clip-rule="evenodd" d="M12.6743 3.50003C8.95232 3.50003 5.92432 6.55703 5.92432 10.313C5.92432 15.092 11.5483 19.748 12.6743 19.996C13.8003 19.747 19.4243 15.091 19.4243 10.313C19.4243 6.55703 16.3963 3.50003 12.6743 3.50003ZM12.6743 21.5C10.8803 21.5 4.42432 15.948 4.42432 10.313C4.42432 5.72903 8.12532 2.00003 12.6743 2.00003C17.2233 2.00003 20.9243 5.72903 20.9243 10.313C20.9243 15.948 14.4683 21.5 12.6743 21.5Z" fill="#125FBF"/>
</g>
</svg>
