<svg width="19" height="21" viewBox="0 0 19 21" fill="none" xmlns="http://www.w3.org/2000/svg">
<path fill-rule="evenodd" clip-rule="evenodd" d="M12.791 11.25H0.75C0.336 11.25 0 10.914 0 10.5C0 10.086 0.336 9.75 0.75 9.75H12.791C13.205 9.75 13.541 10.086 13.541 10.5C13.541 10.914 13.205 11.25 12.791 11.25Z" fill="white"/>
<path fill-rule="evenodd" clip-rule="evenodd" d="M9.86303 14.165C9.67103 14.165 9.47803 14.092 9.33203 13.944C9.03903 13.65 9.04103 13.176 9.33403 12.884L11.728 10.5L9.33403 8.11498C9.04103 7.82298 9.03903 7.34898 9.33203 7.05498C9.62503 6.76098 10.099 6.76098 10.392 7.05298L13.321 9.96898C13.463 10.109 13.542 10.301 13.542 10.5C13.542 10.699 13.463 10.891 13.321 11.031L10.392 13.946C10.246 14.092 10.054 14.165 9.86303 14.165Z" fill="white"/>
<path fill-rule="evenodd" clip-rule="evenodd" d="M14.0424 20.5H9.1574C6.7184 20.5 4.7334 18.515 4.7334 16.075V15.133C4.7334 14.719 5.0694 14.383 5.4834 14.383C5.8974 14.383 6.2334 14.719 6.2334 15.133V16.075C6.2334 17.687 7.5454 19 9.1574 19H14.0424C15.6614 19 16.9784 17.684 16.9784 16.064V4.925C16.9784 3.313 15.6654 2 14.0534 2H9.1684C7.5504 2 6.2334 3.316 6.2334 4.934V5.867C6.2334 6.281 5.8974 6.617 5.4834 6.617C5.0694 6.617 4.7334 6.281 4.7334 5.867V4.934C4.7334 2.489 6.7234 0.5 9.1684 0.5H14.0534C16.4924 0.5 18.4784 2.485 18.4784 4.925V16.064C18.4784 18.51 16.4874 20.5 14.0424 20.5Z" fill="white"/>
</svg>
