<svg width="24" height="25" viewBox="0 0 24 25" fill="none" xmlns="http://www.w3.org/2000/svg">
<mask id="mask0_996_4602" style="mask-type:luminance" maskUnits="userSpaceOnUse" x="14" y="2" width="9" height="10">
<path fill-rule="evenodd" clip-rule="evenodd" d="M14.354 2.75995H22.893V11.2928H14.354V2.75995Z" fill="white"/>
</mask>
<g mask="url(#mask0_996_4602)">
<path fill-rule="evenodd" clip-rule="evenodd" d="M22.1427 11.2928C21.7657 11.2928 21.4417 11.0098 21.3987 10.6268C21.0197 7.25076 18.3977 4.63076 15.0207 4.25576C14.6097 4.20976 14.3127 3.83976 14.3587 3.42776C14.4037 3.01676 14.7707 2.71376 15.1867 2.76576C19.2647 3.21876 22.4317 6.38176 22.8887 10.4588C22.9347 10.8708 22.6387 11.2418 22.2277 11.2878C22.1997 11.2908 22.1707 11.2928 22.1427 11.2928Z" fill="#125FBF"/>
</g>
<path fill-rule="evenodd" clip-rule="evenodd" d="M18.6024 11.3036C18.2504 11.3036 17.9374 11.0556 17.8674 10.6976C17.5794 9.21755 16.4384 8.07655 14.9604 7.78955C14.5534 7.71055 14.2884 7.31755 14.3674 6.91055C14.4464 6.50355 14.8464 6.23755 15.2464 6.31755C17.3274 6.72155 18.9344 8.32755 19.3394 10.4096C19.4184 10.8176 19.1534 11.2106 18.7474 11.2896C18.6984 11.2986 18.6504 11.3036 18.6024 11.3036Z" fill="#125FBF"/>
<mask id="mask1_996_4602" style="mask-type:luminance" maskUnits="userSpaceOnUse" x="2" y="2" width="21" height="22">
<path fill-rule="evenodd" clip-rule="evenodd" d="M2.00049 2.75955H22.5007V23.2601H2.00049V2.75955Z" fill="white"/>
</mask>
<g mask="url(#mask1_996_4602)">
<path fill-rule="evenodd" clip-rule="evenodd" d="M4.35957 5.82106C4.36157 5.82106 4.31157 5.87306 4.24857 5.93506C4.00657 6.17006 3.50557 6.65906 3.50057 7.68206C3.49257 9.11306 4.43357 11.7701 8.96457 16.3001C13.4736 20.8081 16.1266 21.7601 17.5616 21.7601H17.5826C18.6056 21.7541 19.0936 21.2531 19.3286 21.0121C19.3996 20.9391 19.4576 20.8841 19.4986 20.8511C20.4956 19.8481 21.0056 19.1031 21.0006 18.6241C20.9946 18.1361 20.3876 17.5601 19.5486 16.7611C19.2816 16.5081 18.9916 16.2311 18.6856 15.9251C17.8916 15.1341 17.5006 15.2691 16.6356 15.5731C15.4406 15.9921 13.8036 16.5661 11.2526 14.0131C8.70057 11.4621 9.27257 9.82506 9.68957 8.62906C9.99157 7.76506 10.1296 7.37206 9.33657 6.57806C9.02657 6.26806 8.74757 5.97406 8.49057 5.70406C7.69657 4.87006 7.12357 4.26706 6.63857 4.26006H6.63057C6.15157 4.26006 5.40757 4.77206 4.35457 5.82506C4.35757 5.82206 4.35857 5.82106 4.35957 5.82106ZM17.5616 23.2601C15.0696 23.2601 11.8206 21.2761 7.90457 17.3611C3.97257 13.4301 1.98557 10.1711 2.00057 7.67406C2.00957 6.02406 2.87457 5.17906 3.19957 4.86206C3.21657 4.84106 3.27457 4.78406 3.29457 4.76406C4.72957 3.32906 5.71557 2.73906 6.65757 2.76006C7.77457 2.77506 8.57057 3.61206 9.57757 4.67106C9.82657 4.93206 10.0956 5.21706 10.3966 5.51706C11.8556 6.97706 11.4406 8.16806 11.1056 9.12406C10.7416 10.1671 10.4266 11.0671 12.3126 12.9531C14.1986 14.8391 15.0976 14.5241 16.1396 14.1571C17.0966 13.8231 18.2846 13.4051 19.7466 14.8651C20.0436 15.1621 20.3236 15.4281 20.5836 15.6751C21.6466 16.6871 22.4866 17.4861 22.5006 18.6061C22.5116 19.5601 21.9316 20.5341 20.4996 21.9661L19.8656 21.5361L20.4026 22.0591C20.0856 22.3841 19.2426 23.2501 17.5916 23.2601H17.5616Z" fill="#125FBF"/>
</g>
</svg>
