<svg width="24" height="25" viewBox="0 0 24 25" fill="none" xmlns="http://www.w3.org/2000/svg">
<path fill-rule="evenodd" clip-rule="evenodd" d="M11.7767 14.3231C11.1077 14.3231 10.4407 14.1021 9.88273 13.6601L5.39773 10.0441C5.07473 9.78408 5.02473 9.31108 5.28373 8.98908C5.54473 8.66808 6.01673 8.61708 6.33873 8.87608L10.8197 12.4881C11.3827 12.9341 12.1757 12.9341 12.7427 12.4841L17.1787 8.87808C17.5007 8.61508 17.9727 8.66508 18.2347 8.98708C18.4957 9.30808 18.4467 9.78008 18.1257 10.0421L13.6817 13.6541C13.1197 14.1001 12.4477 14.3231 11.7767 14.3231Z" fill="#125FBF"/>
<mask id="mask0_996_4600" style="mask-type:luminance" maskUnits="userSpaceOnUse" x="1" y="2" width="22" height="21">
<path fill-rule="evenodd" clip-rule="evenodd" d="M1 2.85828H22.4999V22.3583H1V2.85828Z" fill="white"/>
</mask>
<g mask="url(#mask0_996_4600)">
<path fill-rule="evenodd" clip-rule="evenodd" d="M6.839 20.8583H16.659C16.661 20.8563 16.669 20.8583 16.675 20.8583C17.816 20.8583 18.828 20.4503 19.604 19.6753C20.505 18.7783 21 17.4893 21 16.0463V9.17828C21 6.38528 19.174 4.35828 16.659 4.35828H6.841C4.326 4.35828 2.5 6.38528 2.5 9.17828V16.0463C2.5 17.4893 2.996 18.7783 3.896 19.6753C4.672 20.4503 5.685 20.8583 6.825 20.8583H6.839ZM6.822 22.3583C5.279 22.3583 3.901 21.7983 2.837 20.7383C1.652 19.5563 1 17.8903 1 16.0463V9.17828C1 5.57528 3.511 2.85828 6.841 2.85828H16.659C19.989 2.85828 22.5 5.57528 22.5 9.17828V16.0463C22.5 17.8903 21.848 19.5563 20.663 20.7383C19.6 21.7973 18.221 22.3583 16.675 22.3583H16.659H6.841H6.822Z" fill="#125FBF"/>
</g>
</svg>
